<svg xmlns="http://www.w3.org/2000/svg" xmlns:xlink="http://www.w3.org/1999/xlink" width="1000" zoomAndPan="magnify" viewBox="0 0 750 749.999995" height="1000" preserveAspectRatio="xMidYMid meet" version="1.0"><path fill="#8b5cf6" d="M 654.46875 100.246094 C 651.035156 100.324219 647.679688 101.363281 644.804688 103.203125 C 603.976562 128.847656 563.230469 154.414062 522.484375 180.058594 C 483.019531 156.171875 437.796875 143.46875 391.699219 143.390625 C 252.765625 143.390625 138.519531 257.714844 138.519531 396.570312 C 138.597656 456.089844 159.691406 513.695312 197.957031 559.234375 C 269.464844 512.175781 380.195312 409.511719 492.527344 287.4375 L 502.351562 296.625 C 396.652344 420.699219 295.667969 523.363281 219.769531 582.003906 C 266.507812 625.464844 327.945312 649.671875 391.699219 649.753906 C 530.636719 649.753906 644.882812 535.503906 644.882812 396.570312 C 644.804688 347.195312 630.261719 298.941406 603.019531 257.714844 L 672.367188 129.007812 C 673.882812 126.132812 674.683594 122.933594 674.683594 119.738281 C 674.683594 109.035156 665.894531 100.246094 655.1875 100.246094 C 654.949219 100.246094 654.710938 100.246094 654.46875 100.246094 Z M 219.769531 582.003906 C 212.019531 574.890625 204.75 567.304688 197.957031 559.234375 C 128.128906 605.253906 95.855469 598.300781 136.359375 504.585938 C 121.980469 526.636719 75.003906 603.015625 95.535156 625.945312 C 113.269531 648.234375 158.25 629.539062 219.769531 582.003906 Z M 655.1875 119.738281 L 578.089844 262.910156 L 598.464844 311.324219 L 544.058594 357.980469 L 547.652344 327.703125 L 533.191406 313.960938 L 539.265625 304.375 L 478.785156 247.730469 L 469.59375 254.441406 L 454.898438 240.9375 L 424.9375 246.53125 L 467.835938 189.167969 L 517.53125 206.265625 C 563.390625 177.421875 609.25 148.582031 655.1875 119.738281 Z M 655.1875 119.738281 " fill-opacity="1" fill-rule="evenodd"/></svg>