<?xml version="1.0" standalone="no"?>
<!DOCTYPE svg PUBLIC "-//W3C//DTD SVG 20010904//EN"
 "http://www.w3.org/TR/2001/REC-SVG-20010904/DTD/svg10.dtd">
<svg version="1.0" xmlns="http://www.w3.org/2000/svg"
 width="700.000000pt" height="700.000000pt" viewBox="0 0 700.000000 700.000000"
 preserveAspectRatio="xMidYMid meet">
<metadata>
Created by potrace 1.14, written by Peter Selinger 2001-2017
</metadata>
<g transform="translate(0.000000,700.000000) scale(0.100000,-0.100000)"
fill="#000000" stroke="none">
<path d="M6070 6056 c-25 -7 -150 -79 -281 -162 -130 -82 -244 -154 -255 -161
-10 -6 -71 -44 -134 -84 -63 -40 -176 -111 -250 -157 -74 -47 -165 -105 -202
-128 l-66 -43 -134 69 c-288 149 -590 238 -908 265 -62 6 -330 6 -360 1 -14
-2 -54 -7 -90 -10 -278 -27 -625 -139 -885 -288 -576 -329 -982 -862 -1144
-1503 -11 -44 -23 -96 -26 -115 -3 -19 -8 -42 -10 -50 -5 -18 -14 -94 -24
-200 -9 -83 -6 -368 3 -427 4 -21 8 -58 11 -83 20 -181 91 -429 179 -630 84
-189 226 -422 323 -530 13 -14 23 -29 23 -35 0 -26 -303 -191 -430 -235 -88
-30 -174 -33 -223 -8 -110 55 -102 260 22 589 27 71 47 129 45 129 -4 0 -119
-194 -176 -296 -44 -80 -148 -296 -148 -309 0 -4 -6 -21 -14 -38 -45 -100 -73
-232 -70 -324 4 -131 96 -215 240 -222 181 -8 522 161 894 443 36 27 66 50 67
51 1 0 -43 47 -97 104 -55 57 -100 106 -100 110 0 3 26 22 58 43 61 39 324
234 407 302 228 186 531 446 626 536 15 14 69 63 120 110 249 227 937 909
1225 1215 275 291 289 307 292 316 7 18 28 8 69 -31 l42 -41 -22 -25 c-12 -14
-33 -38 -47 -53 -14 -15 -36 -41 -50 -57 -41 -49 -144 -169 -150 -174 -3 -3
-34 -39 -70 -80 -36 -41 -67 -77 -70 -80 -3 -3 -39 -43 -80 -90 -41 -47 -98
-110 -126 -140 -28 -30 -71 -77 -95 -104 -24 -28 -51 -57 -59 -66 -402 -438
-951 -993 -1260 -1274 -36 -32 -83 -75 -105 -95 -22 -20 -74 -65 -115 -101
-41 -36 -77 -67 -80 -70 -14 -14 -196 -164 -245 -201 -30 -23 -55 -46 -55 -53
1 -28 313 -258 444 -327 32 -17 72 -38 90 -48 51 -28 221 -101 299 -127 341
-116 703 -153 1069 -109 277 34 609 147 868 296 50 29 246 163 275 188 17 14
51 42 75 61 40 31 210 199 266 261 40 46 171 225 218 299 124 195 259 528 302
743 41 210 48 285 48 497 1 195 -8 291 -43 465 -50 253 -153 516 -286 736
l-57 94 25 45 c13 25 44 81 67 125 24 44 55 103 70 130 15 28 46 86 70 130 24
44 55 103 70 130 15 28 51 95 80 150 29 55 56 105 60 110 4 6 29 51 55 100 26
50 65 122 85 160 82 153 84 157 84 212 -1 116 -112 200 -224 169z m33 -193
c-3 -9 -56 -109 -118 -222 -61 -113 -135 -251 -164 -306 -49 -91 -142 -263
-211 -390 -97 -177 -210 -393 -210 -401 0 -6 42 -109 93 -229 l93 -220 -181
-154 c-99 -85 -182 -157 -185 -160 -15 -17 -129 -111 -135 -111 -3 0 -3 21 0
48 3 26 8 65 10 87 3 22 8 62 11 89 l6 50 -67 61 -68 62 28 47 27 47 -29 27
c-16 15 -67 63 -114 107 -248 233 -345 324 -382 357 l-41 36 -28 -19 c-15 -11
-30 -24 -33 -29 -12 -19 -31 -9 -93 50 -35 33 -68 60 -72 60 -5 0 -55 -9 -112
-20 -162 -30 -159 -30 -151 -16 33 52 387 516 394 516 6 0 101 -31 212 -70
111 -38 214 -72 228 -75 21 -5 61 16 215 112 357 224 779 490 929 586 83 52
151 96 152 96 1 1 0 -6 -4 -16z"/>
</g>
</svg>
